<svg width="70" height="69" viewBox="0 0 70 69" fill="none" xmlns="http://www.w3.org/2000/svg">
<path d="M15.4335 56.564L27.9277 10.9513L23.4881 0L0 27.8479L7.02799 64.7864L15.4335 56.564Z" fill="url(#paint0_linear_344_8459)"/>
<path d="M58.1198 41.4661L69.2716 45.0722L55.6105 12.0234L23.4888 0L27.9284 10.9513L58.1198 41.4661Z" fill="url(#paint1_linear_344_8459)"/>
<path d="M58.1189 41.4668L15.4333 56.5647L7.02783 64.7871L44.3437 68.7919L69.2707 45.0729L58.1189 41.4668Z" fill="url(#paint2_linear_344_8459)"/>
<path d="M30.2778 16.7549L27.9263 10.9514L15.4321 56.5641L19.8893 52.196L30.2778 16.7549Z" fill="#EA4242"/>
<path d="M30.2787 16.7549L52.205 39.5613L58.1186 41.4662L27.9272 10.9514L30.2787 16.7549Z" fill="url(#paint3_linear_344_8459)"/>
<path d="M19.8893 52.1941L15.4321 56.5622L58.1177 41.4643L52.204 39.5593L19.8893 52.1941Z" fill="#F35048"/>
<path d="M37.6064 34.8432L30.28 16.7505L19.8916 52.1916L37.6064 34.8432Z" fill="url(#paint4_linear_344_8459)"/>
<path d="M52.2051 39.5569L30.2788 16.7505L37.6051 34.8432L52.2051 39.5569Z" fill="url(#paint5_linear_344_8459)"/>
<path d="M19.8916 52.1966L52.2063 39.5618L37.6063 34.8481L19.8916 52.1966Z" fill="url(#paint6_linear_344_8459)"/>
<defs>
<linearGradient id="paint0_linear_344_8459" x1="-64.4981" y1="86.488" x2="38.1024" y2="18.2514" gradientUnits="userSpaceOnUse">
<stop stop-color="#828282"/>
<stop offset="0.5168" stop-color="#363636"/>
<stop offset="1"/>
</linearGradient>
<linearGradient id="paint1_linear_344_8459" x1="-22.7154" y1="67.8036" x2="90.7214" y2="-5.07618" gradientUnits="userSpaceOnUse">
<stop offset="0.3656" stop-color="#828282"/>
<stop offset="0.5719" stop-color="#363636"/>
<stop offset="1"/>
</linearGradient>
<linearGradient id="paint2_linear_344_8459" x1="-5.38556" y1="87.6754" x2="62.7865" y2="40.3011" gradientUnits="userSpaceOnUse">
<stop stop-color="#828282"/>
<stop offset="0.5168" stop-color="#363636"/>
<stop offset="1"/>
</linearGradient>
<linearGradient id="paint3_linear_344_8459" x1="12.2022" y1="2.31583" x2="110.625" y2="81.7752" gradientUnits="userSpaceOnUse">
<stop stop-color="#FF5858"/>
<stop offset="0.237" stop-color="#FD614F"/>
<stop offset="0.6294" stop-color="#F77B36"/>
<stop offset="0.9944" stop-color="#F09819"/>
</linearGradient>
<linearGradient id="paint4_linear_344_8459" x1="-60.4913" y1="92.5071" x2="42.1092" y2="24.2703" gradientUnits="userSpaceOnUse">
<stop stop-color="#828282"/>
<stop offset="0.5168" stop-color="#363636"/>
<stop offset="1"/>
</linearGradient>
<linearGradient id="paint5_linear_344_8459" x1="-21.6967" y1="69.3866" x2="91.7401" y2="-3.49326" gradientUnits="userSpaceOnUse">
<stop offset="0.3656" stop-color="#828282"/>
<stop offset="0.5719" stop-color="#363636"/>
<stop offset="1"/>
</linearGradient>
<linearGradient id="paint6_linear_344_8459" x1="-12.2904" y1="77.7377" x2="55.8817" y2="30.3634" gradientUnits="userSpaceOnUse">
<stop stop-color="#828282"/>
<stop offset="0.5168" stop-color="#363636"/>
<stop offset="1"/>
</linearGradient>
</defs>
</svg>
