<svg width="21" height="20" viewBox="0 0 21 20" fill="none" xmlns="http://www.w3.org/2000/svg">
<path d="M17.5417 2.5H4.20833C3.7475 2.5 3.375 2.87333 3.375 3.33333V16.6667C3.375 17.1267 3.7475 17.5 4.20833 17.5H11.3875V11.7H9.43917V9.42917H11.3875V7.7625C11.3875 5.825 12.5708 4.76917 14.3042 4.76917C14.8867 4.7675 15.47 4.7975 16.05 4.85833V6.875H14.8542C13.9142 6.875 13.7308 7.32333 13.7308 7.97917V9.425H15.9783L15.6867 11.6958H13.73V17.5H17.5417C18.0025 17.5 18.375 17.1267 18.375 16.6667V3.33333C18.375 2.87333 18.0025 2.5 17.5417 2.5Z" fill="white"/>
</svg>
