<svg width="28" height="28" viewBox="0 0 28 28" fill="none" xmlns="http://www.w3.org/2000/svg">
<path d="M17.2905 4.96973C17.0588 5.3847 16.8523 5.81325 16.6722 6.25306C14.9021 5.97312 13.099 5.97312 11.3288 6.25306C11.1487 5.81325 10.9422 5.3847 10.7105 4.96973C9.0431 5.25463 7.42215 5.76485 5.89218 6.48639C3.15628 10.4347 1.91552 15.2282 2.39218 20.0081C4.17512 21.3484 6.17622 22.3706 8.30718 23.0297C8.79241 22.3888 9.22547 21.7099 9.60218 20.9997C8.90693 20.7434 8.23869 20.419 7.60718 20.0314C7.78039 19.9161 7.94423 19.7874 8.09718 19.6464C9.93872 20.5334 11.9565 20.9941 14.0005 20.9941C16.0446 20.9941 18.0623 20.5334 19.9038 19.6464C20.0672 19.7864 20.2305 19.9147 20.3938 20.0314C19.7589 20.416 19.0913 20.7439 18.3988 21.0114C18.7599 21.7377 19.1814 22.4324 19.6588 23.0881C21.7871 22.4313 23.7848 21.4087 25.5622 20.0664C26.0503 15.2856 24.8085 10.4883 22.0622 6.54473C20.5494 5.80825 18.9445 5.27851 17.2905 4.96973ZM10.1272 17.2781C9.54336 17.2361 8.99848 16.9697 8.60692 16.5346C8.21536 16.0996 8.00758 15.5297 8.02718 14.9447C8.00462 14.359 8.21138 13.7875 8.60353 13.3518C8.99567 12.9161 9.54228 12.6504 10.1272 12.6114C10.7121 12.6504 11.2587 12.9161 11.6508 13.3518C12.043 13.7875 12.2497 14.359 12.2272 14.9447C12.2497 15.5305 12.043 16.102 11.6508 16.5377C11.2587 16.9734 10.7121 17.239 10.1272 17.2781ZM17.8738 17.2781C17.29 17.2361 16.7451 16.9697 16.3536 16.5346C15.962 16.0996 15.7542 15.5297 15.7738 14.9447C15.7513 14.359 15.958 13.7875 16.3502 13.3518C16.7423 12.9161 17.289 12.6504 17.8738 12.6114C18.4598 12.6475 19.0082 12.9123 19.401 13.3487C19.7937 13.7851 19.9994 14.3582 19.9738 14.9447C19.9994 15.5313 19.7937 16.1044 19.401 16.5408C19.0082 16.9772 18.4598 17.2419 17.8738 17.2781Z" fill="white"/>
</svg>
