<svg width="21" height="20" viewBox="0 0 21 20" fill="none" xmlns="http://www.w3.org/2000/svg">
<path d="M17.5275 8.6299H10.5883V11.5057H14.5816C14.21 13.3332 12.6541 14.3832 10.5883 14.3832C8.15248 14.3832 6.18914 12.4199 6.18914 9.98323C6.18914 7.54739 8.15248 5.58406 10.5883 5.58406C11.6375 5.58406 12.5858 5.95656 13.33 6.56573L15.4966 4.3999C14.1766 3.24906 12.4841 2.53906 10.5883 2.53906C6.45998 2.53906 3.14331 5.8549 3.14331 9.98406C3.14331 14.1132 6.45914 17.4291 10.5883 17.4291C14.3108 17.4291 17.6958 14.7216 17.6958 9.98406C17.6958 9.54406 17.6283 9.0699 17.5275 8.6299Z" fill="white"/>
</svg>
