<svg width="28" height="28" viewBox="0 0 28 28" fill="none" xmlns="http://www.w3.org/2000/svg">
<path d="M22.9052 9.32972C22.9204 9.53389 22.9204 9.73689 22.9204 9.93989C22.9204 16.1524 18.1919 23.3111 9.55037 23.3111C6.88804 23.3111 4.41471 22.5399 2.33337 21.2006C2.71137 21.2437 3.07537 21.2589 3.46854 21.2589C5.66537 21.2589 7.68721 20.5169 9.30304 19.2511C7.23687 19.2079 5.50554 17.8546 4.90821 15.9926C5.19871 16.0357 5.49037 16.0649 5.79604 16.0649C6.21721 16.0649 6.64071 16.0066 7.03387 15.9051C4.87904 15.4687 3.26554 13.5776 3.26554 11.2932V11.2349C3.89204 11.5837 4.61887 11.8019 5.38887 11.8311C4.12304 10.9887 3.29354 9.54789 3.29354 7.91805C3.29354 7.04539 3.52571 6.24505 3.93287 5.54739C6.24637 8.39755 9.72421 10.2607 13.6232 10.4649C13.5509 10.1149 13.5065 9.75205 13.5065 9.38805C13.5065 6.79805 15.6019 4.68872 18.2059 4.68872C19.5592 4.68872 20.7807 5.25572 21.6394 6.17272C22.701 5.96855 23.7184 5.57539 24.6214 5.03755C24.2725 6.12839 23.5294 7.04539 22.5552 7.62755C23.5014 7.52489 24.4184 7.26355 25.2607 6.89955C24.6214 7.83055 23.8222 8.66005 22.9052 9.32972Z" fill="white"/>
</svg>
