<svg width="28" height="28" viewBox="0 0 28 28" fill="none" xmlns="http://www.w3.org/2000/svg">
<g clip-path="url(#clip0_4309_104197)">
<path d="M1.79895e-08 14.0067C1.79895e-08 6.27836 6.16992 -0.0370783 13.9075 0.000163872C22.1418 0.0385579 28.0192 6.79591 27.9186 14.186C27.8172 21.6195 21.9633 27.943 13.8948 27.9998C6.14497 28.0547 -0.000383922 21.7799 1.79895e-08 14.0067Z" fill="#0052FF"/>
<path d="M9.60303 5.38477C12.1466 4.00489 15.3276 3.89431 17.9729 5.05343C20.7945 6.259 22.9089 8.87287 23.6023 11.8496C22.0746 11.8538 20.5446 11.9045 19.0188 11.8208C18.1138 9.28676 14.9832 7.94296 12.4776 8.82065C10.2588 9.50944 8.58981 11.772 8.76412 14.119C8.7357 16.8765 11.2213 19.3314 13.9677 19.3245C16.1646 19.4504 18.277 18.0087 19.1071 16C20.6064 15.9888 22.1018 15.9846 23.6023 16.0023C23.0548 18.3792 21.6392 20.5888 19.584 21.9311C17.2803 23.5628 14.2372 24.002 11.5327 23.2691C8.97413 22.5561 6.72001 20.7654 5.52557 18.3835C4.27815 15.9992 4.09271 13.0874 5.05985 10.5726C5.86344 8.36069 7.5236 6.48207 9.60303 5.38477Z" fill="white"/>
</g>
<defs>
<clipPath id="clip0_4309_104197">
<rect width="27.9198" height="28" fill="white"/>
</clipPath>
</defs>
</svg>
