<svg width="44" height="24" viewBox="0 0 44 24" fill="none" xmlns="http://www.w3.org/2000/svg">
<path d="M0.106445 13.5808C0.106445 13.4403 0.218538 13.3115 0.373148 13.3115H2.0468C2.18595 13.3115 2.3135 13.4403 2.3135 13.5808V21.1609H5.6608C5.81541 21.1609 5.9275 21.2897 5.9275 21.4303V22.9798C5.9275 23.1204 5.81541 23.2492 5.6608 23.2492H0.373148C0.218538 23.2492 0.106445 23.1204 0.106445 22.9798V13.5808Z" fill="white"/>
<path d="M18.0024 13.5808C18.0024 13.4403 18.1145 13.3115 18.2691 13.3115H21.5469C23.2051 13.3115 24.5695 14.463 24.5695 15.954C24.5695 17.0469 23.5993 17.8432 22.9384 18.1984C23.6843 18.5106 24.8207 19.2054 24.8207 20.513C24.8207 22.1016 23.4292 23.2531 21.7556 23.2531H18.2691C18.1145 23.2531 18.0024 23.1243 18.0024 22.9838V13.5808ZM21.2918 17.3436C21.8252 17.3436 22.2774 16.8908 22.2774 16.3209C22.2774 15.751 21.829 15.3568 21.2918 15.3568H20.194V17.3436H21.2918ZM21.4773 21.2195C22.0262 21.2195 22.49 20.7667 22.49 20.1812C22.49 19.6153 21.887 19.1859 21.3381 19.1859H20.1979V21.2156H21.4773V21.2195Z" fill="white"/>
<path d="M26.3284 21.9024L26.9893 20.7237C27.1014 20.5402 27.3681 20.5675 27.4686 20.6378C27.5266 20.6651 28.5354 21.4184 29.4669 21.4184C30.0313 21.4184 30.4371 21.0632 30.4371 20.5675C30.4371 19.9703 29.9462 19.5176 28.9876 19.135C27.7778 18.651 26.2588 17.7026 26.2588 15.9968C26.2588 14.5917 27.3411 13.1709 29.5056 13.1709C30.9666 13.1709 32.0914 13.9242 32.5127 14.2365C32.6828 14.3341 32.6519 14.5917 32.5978 14.6893L31.8788 15.7822C31.7822 15.9383 31.5271 16.0671 31.3996 15.9656C31.272 15.8954 30.2477 15.1147 29.3896 15.1147C28.8833 15.1147 28.5045 15.4543 28.5045 15.8368C28.5045 16.3637 28.9258 16.758 30.039 17.2147C31.1367 17.6557 32.8799 18.5222 32.8799 20.4504C32.8799 21.9142 31.6276 23.3896 29.5636 23.3896C27.7353 23.3896 26.7226 22.6245 26.4018 22.2967C26.2549 22.1562 26.2163 22.1015 26.3284 21.9024Z" fill="white"/>
<path d="M11.5787 17.4996H11.5632L9.66538 21.7736L9.15903 22.9095C9.08946 23.0812 8.93485 23.2491 8.65269 23.2491H7.10659C6.894 23.2491 6.78191 23.0656 6.86695 22.8783L11.2695 13.3231C11.312 13.2373 11.4086 13.167 11.5091 13.167H11.6482C11.7449 13.167 11.8454 13.2373 11.8879 13.3231L16.2865 22.8822C16.3716 23.0656 16.2595 23.253 16.0469 23.253H14.4853C14.2341 23.253 14.1181 23.1671 13.9944 22.8978L11.5787 17.4996Z" fill="white"/>
<path d="M4.84137 5.07186H4.82591L2.92808 9.3459L2.42173 10.4817C2.35215 10.6535 2.19755 10.8213 1.91538 10.8213H0.369287C0.156699 10.8213 0.044606 10.6379 0.129641 10.4505L4.53215 0.895387C4.57467 0.809516 4.6713 0.739258 4.7718 0.739258H4.91094C5.00758 0.739258 5.10807 0.809516 5.15059 0.895387L9.5531 10.4505C9.63813 10.634 9.52604 10.8213 9.31345 10.8213H7.75189C7.50065 10.8213 7.3847 10.7355 7.26101 10.4661L4.84137 5.07186Z" fill="white"/>
<path d="M11.4666 2.97202H9.45664C9.30203 2.97202 9.18994 2.84322 9.18994 2.7027V1.15702C9.18994 1.0165 9.30203 0.887695 9.45664 0.887695H15.699C15.8536 0.887695 15.9657 1.0165 15.9657 1.15702V2.7027C15.9657 2.84322 15.8536 2.97202 15.699 2.97202H13.6891V10.5521C13.6891 10.6926 13.5615 10.8214 13.4224 10.8214H11.7333C11.5941 10.8214 11.4666 10.6926 11.4666 10.5521V2.97202Z" fill="white"/>
<path d="M17.3726 1.15311C17.3726 1.0126 17.5001 0.883789 17.6393 0.883789H19.3129C19.4675 0.883789 19.5796 1.0126 19.5796 1.15311V4.73238H23.5995V1.15311C23.5995 1.0126 23.7116 0.883789 23.8662 0.883789H25.5398C25.679 0.883789 25.8065 1.0126 25.8065 1.15311V10.5521C25.8065 10.6926 25.679 10.8214 25.5398 10.8214H23.8662C23.7116 10.8214 23.5995 10.6926 23.5995 10.5521V6.81671H19.5796V10.5521C19.5796 10.6926 19.4675 10.8214 19.3129 10.8214H17.6393C17.5001 10.8214 17.3726 10.6926 17.3726 10.5521V1.15311Z" fill="white"/>
<path d="M28.2261 1.15311C28.2261 1.0126 28.3382 0.883789 28.4928 0.883789H34.3138C34.4684 0.883789 34.5805 1.0126 34.5805 1.15311V2.6988C34.5805 2.83931 34.4684 2.96812 34.3138 2.96812H30.4177V4.72848H33.622C33.7611 4.72848 33.8887 4.85729 33.8887 4.9978V6.54349C33.8887 6.69962 33.7611 6.81281 33.622 6.81281H30.4177V8.7293H34.3138C34.4684 8.7293 34.5805 8.85811 34.5805 8.99862V10.5482C34.5805 10.6887 34.4684 10.8175 34.3138 10.8175H28.4928C28.3382 10.8175 28.2261 10.6887 28.2261 10.5482V1.15311Z" fill="white"/>
<path d="M36.4629 1.15311C36.4629 1.0126 36.575 0.883789 36.7296 0.883789H40.935C42.6241 0.883789 44.0001 2.26163 44.0001 3.95174C44.0001 5.25932 43.142 6.30929 41.9206 6.805L43.8455 10.4116C43.9421 10.595 43.8455 10.8214 43.6059 10.8214H41.7351C41.623 10.8214 41.5379 10.7512 41.5109 10.6926L39.6401 6.92991H38.6699V10.5521C38.6699 10.6926 38.5424 10.8214 38.4032 10.8214H36.7296C36.575 10.8214 36.4629 10.6926 36.4629 10.5521V1.15311ZM40.7533 5.13051C41.3292 5.13051 41.8201 4.59187 41.8201 3.99467C41.8201 3.39748 41.3292 2.91738 40.7533 2.91738H38.6738V5.13051H40.7533Z" fill="white"/>
</svg>
