<svg width="89" height="48" viewBox="0 0 89 48" fill="none" xmlns="http://www.w3.org/2000/svg">
<path d="M0.727539 9V1.8418H3.04688C3.92578 1.8418 4.4987 1.8776 4.76562 1.94922C5.17578 2.05664 5.51921 2.29102 5.7959 2.65234C6.07259 3.01042 6.21094 3.47428 6.21094 4.04395C6.21094 4.4834 6.13118 4.85286 5.97168 5.15234C5.81217 5.45182 5.60872 5.68783 5.36133 5.86035C5.11719 6.02962 4.86816 6.14193 4.61426 6.19727C4.26921 6.26562 3.76953 6.2998 3.11523 6.2998H2.17285V9H0.727539ZM2.17285 3.05273V5.08398H2.96387C3.53353 5.08398 3.91439 5.04655 4.10645 4.97168C4.2985 4.89681 4.44824 4.77962 4.55566 4.62012C4.66634 4.46061 4.72168 4.27507 4.72168 4.06348C4.72168 3.80306 4.64518 3.58822 4.49219 3.41895C4.33919 3.24967 4.14551 3.14388 3.91113 3.10156C3.73861 3.06901 3.39193 3.05273 2.87109 3.05273H2.17285ZM7.60449 5.46484C7.60449 4.73568 7.71354 4.1237 7.93164 3.62891C8.0944 3.26432 8.31576 2.93717 8.5957 2.64746C8.87891 2.35775 9.18815 2.1429 9.52344 2.00293C9.9694 1.81413 10.4837 1.71973 11.0664 1.71973C12.1211 1.71973 12.9642 2.04688 13.5957 2.70117C14.2305 3.35547 14.5479 4.2653 14.5479 5.43066C14.5479 6.58626 14.2337 7.49121 13.6055 8.14551C12.9772 8.79655 12.1374 9.12207 11.0859 9.12207C10.0215 9.12207 9.17513 8.79818 8.54688 8.15039C7.91862 7.49935 7.60449 6.60417 7.60449 5.46484ZM9.09375 5.41602C9.09375 6.22656 9.28092 6.8418 9.65527 7.26172C10.0296 7.67839 10.5049 7.88672 11.0811 7.88672C11.6572 7.88672 12.1292 7.68001 12.4971 7.2666C12.8682 6.84993 13.0537 6.22656 13.0537 5.39648C13.0537 4.57617 12.873 3.96419 12.5117 3.56055C12.1536 3.1569 11.6768 2.95508 11.0811 2.95508C10.4854 2.95508 10.0052 3.16016 9.64062 3.57031C9.27604 3.97721 9.09375 4.59245 9.09375 5.41602ZM17.1963 9L15.4873 1.8418H16.9668L18.0459 6.75879L19.3545 1.8418H21.0732L22.3281 6.8418L23.4268 1.8418H24.8818L23.1436 9H21.6104L20.1846 3.64844L18.7637 9H17.1963ZM26.124 9V1.8418H31.4316V3.05273H27.5693V4.63965H31.1631V5.8457H27.5693V7.79395H31.5684V9H26.124ZM33.2988 9V1.8418H36.3408C37.1058 1.8418 37.6608 1.9069 38.0059 2.03711C38.3542 2.16406 38.6325 2.39193 38.8408 2.7207C39.0492 3.04948 39.1533 3.42546 39.1533 3.84863C39.1533 4.38574 38.9954 4.83008 38.6797 5.18164C38.3639 5.52995 37.8919 5.74967 37.2637 5.84082C37.5762 6.02311 37.8333 6.22331 38.0352 6.44141C38.2402 6.65951 38.5153 7.04688 38.8604 7.60352L39.7344 9H38.0059L36.9609 7.44238C36.5898 6.88574 36.3359 6.53581 36.1992 6.39258C36.0625 6.24609 35.9176 6.14681 35.7646 6.09473C35.6117 6.03939 35.3691 6.01172 35.0371 6.01172H34.7441V9H33.2988ZM34.7441 4.86914H35.8135C36.5068 4.86914 36.9398 4.83984 37.1123 4.78125C37.2848 4.72266 37.4199 4.62174 37.5176 4.47852C37.6152 4.33529 37.6641 4.15625 37.6641 3.94141C37.6641 3.70052 37.599 3.50684 37.4688 3.36035C37.3418 3.21061 37.1611 3.11621 36.9268 3.07715C36.8096 3.06087 36.458 3.05273 35.8721 3.05273H34.7441V4.86914ZM41.0205 9V1.8418H46.3281V3.05273H42.4658V4.63965H46.0596V5.8457H42.4658V7.79395H46.4648V9H41.0205ZM48.1855 1.8418H50.8271C51.4229 1.8418 51.877 1.88737 52.1895 1.97852C52.6094 2.10221 52.9691 2.32194 53.2686 2.6377C53.568 2.95345 53.7959 3.34082 53.9521 3.7998C54.1084 4.25553 54.1865 4.81868 54.1865 5.48926C54.1865 6.07845 54.1133 6.58626 53.9668 7.0127C53.7878 7.53353 53.5322 7.95508 53.2002 8.27734C52.9495 8.52148 52.611 8.71191 52.1846 8.84863C51.8656 8.94954 51.4391 9 50.9053 9H48.1855V1.8418ZM49.6309 3.05273V7.79395H50.71C51.1136 7.79395 51.4049 7.77116 51.584 7.72559C51.8184 7.66699 52.012 7.56771 52.165 7.42773C52.3213 7.28776 52.4482 7.05827 52.5459 6.73926C52.6436 6.41699 52.6924 5.97917 52.6924 5.42578C52.6924 4.8724 52.6436 4.44759 52.5459 4.15137C52.4482 3.85514 52.3115 3.62402 52.1357 3.45801C51.96 3.29199 51.737 3.17969 51.4668 3.12109C51.265 3.07552 50.8695 3.05273 50.2803 3.05273H49.6309ZM59.2051 1.8418H62.0664C62.6328 1.8418 63.0544 1.86621 63.3311 1.91504C63.611 1.96061 63.86 2.05827 64.0781 2.20801C64.2995 2.35775 64.4834 2.55794 64.6299 2.80859C64.7764 3.05599 64.8496 3.33431 64.8496 3.64355C64.8496 3.97884 64.7585 4.28646 64.5762 4.56641C64.3971 4.84635 64.153 5.05632 63.8438 5.19629C64.2799 5.32324 64.6152 5.53971 64.8496 5.8457C65.084 6.15169 65.2012 6.51139 65.2012 6.9248C65.2012 7.25033 65.1247 7.56771 64.9717 7.87695C64.8219 8.18294 64.6152 8.42871 64.3516 8.61426C64.0911 8.79655 63.7689 8.90885 63.3848 8.95117C63.1439 8.97721 62.5628 8.99349 61.6416 9H59.2051V1.8418ZM60.6504 3.0332V4.68848H61.5977C62.1608 4.68848 62.5107 4.68034 62.6475 4.66406C62.8949 4.63477 63.0885 4.55013 63.2285 4.41016C63.3717 4.26693 63.4434 4.07975 63.4434 3.84863C63.4434 3.62728 63.3815 3.44824 63.2578 3.31152C63.1374 3.17155 62.9567 3.08691 62.7158 3.05762C62.5726 3.04134 62.1608 3.0332 61.4805 3.0332H60.6504ZM60.6504 5.87988V7.79395H61.9883C62.5091 7.79395 62.8395 7.7793 62.9795 7.75C63.1943 7.71094 63.3685 7.61654 63.502 7.4668C63.6387 7.3138 63.707 7.11035 63.707 6.85645C63.707 6.6416 63.6549 6.45931 63.5508 6.30957C63.4466 6.15983 63.2952 6.05078 63.0967 5.98242C62.9014 5.91406 62.4749 5.87988 61.8174 5.87988H60.6504ZM68.8066 9V5.9873L66.1846 1.8418H67.8789L69.5635 4.67383L71.2139 1.8418H72.8789L70.2471 5.99707V9H68.8066Z" fill="#9091A0"/>
<path d="M40.0684 32.3503C40.0684 32.1956 40.1918 32.0537 40.362 32.0537H42.205C42.3583 32.0537 42.4987 32.1956 42.4987 32.3503V40.6973H46.1847C46.3549 40.6973 46.4784 40.8391 46.4784 40.9939V42.7002C46.4784 42.855 46.3549 42.9968 46.1847 42.9968H40.362C40.1918 42.9968 40.0684 42.855 40.0684 42.7002V32.3503Z" fill="white"/>
<path d="M59.7754 32.3503C59.7754 32.1956 59.8988 32.0537 60.0691 32.0537H63.6784C65.5044 32.0537 67.0068 33.3217 67.0068 34.9636C67.0068 36.167 65.9385 37.0439 65.2107 37.435C66.0322 37.7788 67.2835 38.5439 67.2835 39.9838C67.2835 41.7331 65.7512 43.0011 63.9083 43.0011H60.0691C59.8988 43.0011 59.7754 42.8593 59.7754 42.7045V32.3503ZM63.3975 36.4937C63.9849 36.4937 64.4829 35.9951 64.4829 35.3676C64.4829 34.7401 63.9891 34.3059 63.3975 34.3059H62.1887V36.4937H63.3975ZM63.6018 40.7618C64.2062 40.7618 64.717 40.2632 64.717 39.6185C64.717 38.9952 64.053 38.5224 63.4486 38.5224H62.193V40.7575H63.6018V40.7618Z" fill="white"/>
<path d="M68.9428 41.5124L69.6707 40.2144C69.7941 40.0124 70.0878 40.0424 70.1984 40.1198C70.2623 40.1499 71.3732 40.9794 72.3989 40.9794C73.0204 40.9794 73.4673 40.5883 73.4673 40.0424C73.4673 39.3848 72.9267 38.8862 71.8712 38.465C70.5389 37.9321 68.8662 36.8876 68.8662 35.0093C68.8662 33.462 70.058 31.8975 72.4415 31.8975C74.0504 31.8975 75.289 32.727 75.7529 33.0709C75.9402 33.1783 75.9061 33.462 75.8465 33.5694L75.0549 34.7729C74.9485 34.9448 74.6675 35.0867 74.5271 34.9749C74.3866 34.8976 73.2587 34.0379 72.3138 34.0379C71.7562 34.0379 71.3391 34.4119 71.3391 34.8331C71.3391 35.4133 71.8031 35.8475 73.0289 36.3503C74.2377 36.836 76.1572 37.7902 76.1572 39.9135C76.1572 41.5253 74.7782 43.15 72.5053 43.15C70.4921 43.15 69.377 42.3076 69.0237 41.9465C68.862 41.7918 68.8194 41.7316 68.9428 41.5124Z" fill="white"/>
<path d="M52.7013 36.6655H52.6843L50.5945 41.3719L50.0369 42.6227C49.9603 42.8118 49.79 42.9966 49.4793 42.9966H47.7768C47.5427 42.9966 47.4193 42.7946 47.5129 42.5883L52.3608 32.0665C52.4076 31.9719 52.5141 31.8945 52.6247 31.8945H52.7779C52.8844 31.8945 52.995 31.9719 53.0418 32.0665L57.8855 42.5926C57.9791 42.7946 57.8557 43.0009 57.6216 43.0009H55.9021C55.6254 43.0009 55.4977 42.9064 55.3615 42.6098L52.7013 36.6655Z" fill="white"/>
<path d="M45.2824 22.9799H45.2654L43.1755 27.6864L42.6179 28.9372C42.5413 29.1263 42.3711 29.3111 42.0604 29.3111H40.3578C40.1238 29.3111 40.0003 29.1091 40.094 28.9028L44.9419 18.3809C44.9887 18.2864 45.0951 18.209 45.2058 18.209H45.359C45.4654 18.209 45.5761 18.2864 45.6229 18.3809L50.4708 28.9028C50.5645 29.1048 50.441 29.3111 50.2069 29.3111H48.4874C48.2107 29.3111 48.083 29.2165 47.9468 28.92L45.2824 22.9799Z" fill="white"/>
<path d="M52.5773 20.6673H50.364C50.1937 20.6673 50.0703 20.5254 50.0703 20.3707V18.6686C50.0703 18.5139 50.1937 18.3721 50.364 18.3721H57.2379C57.4082 18.3721 57.5316 18.5139 57.5316 18.6686V20.3707C57.5316 20.5254 57.4082 20.6673 57.2379 20.6673H55.0246V29.0143C55.0246 29.169 54.8842 29.3109 54.731 29.3109H52.871C52.7177 29.3109 52.5773 29.169 52.5773 29.0143V20.6673Z" fill="white"/>
<path d="M59.0811 18.6647C59.0811 18.51 59.2215 18.3682 59.3747 18.3682H61.2177C61.388 18.3682 61.5114 18.51 61.5114 18.6647V22.6061H65.938V18.6647C65.938 18.51 66.0614 18.3682 66.2316 18.3682H68.0746C68.2279 18.3682 68.3683 18.51 68.3683 18.6647V29.0147C68.3683 29.1694 68.2279 29.3112 68.0746 29.3112H66.2316C66.0614 29.3112 65.938 29.1694 65.938 29.0147V24.9013H61.5114V29.0147C61.5114 29.1694 61.388 29.3112 61.2177 29.3112H59.3747C59.2215 29.3112 59.0811 29.1694 59.0811 29.0147V18.6647Z" fill="white"/>
<path d="M71.0332 18.6647C71.0332 18.51 71.1566 18.3682 71.3269 18.3682H77.7369C77.9071 18.3682 78.0306 18.51 78.0306 18.6647V20.3668C78.0306 20.5215 77.9071 20.6634 77.7369 20.6634H73.4465V22.6018H76.975C77.1282 22.6018 77.2687 22.7437 77.2687 22.8984V24.6005C77.2687 24.7724 77.1282 24.8971 76.975 24.8971H73.4465V27.0074H77.7369C77.9071 27.0074 78.0306 27.1493 78.0306 27.304V29.0104C78.0306 29.1651 77.9071 29.307 77.7369 29.307H71.3269C71.1566 29.307 71.0332 29.1651 71.0332 29.0104V18.6647Z" fill="white"/>
<path d="M80.1035 18.6647C80.1035 18.51 80.2269 18.3682 80.3972 18.3682H85.0281C86.8881 18.3682 88.4033 19.8854 88.4033 21.7465C88.4033 23.1864 87.4584 24.3426 86.1134 24.8885L88.2331 28.8599C88.3395 29.062 88.2331 29.3112 87.9692 29.3112H85.9091C85.7857 29.3112 85.692 29.2339 85.6622 29.1694L83.6022 25.026H82.5339V29.0147C82.5339 29.1694 82.3934 29.3112 82.2402 29.3112H80.3972C80.2269 29.3112 80.1035 29.1694 80.1035 29.0147V18.6647ZM84.828 23.0445C85.4622 23.0445 86.0028 22.4514 86.0028 21.7938C86.0028 21.1362 85.4622 20.6075 84.828 20.6075H82.5381V23.0445H84.828Z" fill="white"/>
<path d="M7.48684 41.4394L13.5478 19.3125L11.3941 14L0 27.5091L3.4093 45.4281L7.48684 41.4394Z" fill="url(#paint0_linear_3777_76113)"/>
<path d="M28.1942 34.1153L33.6039 35.8647L26.9769 19.8326L11.3945 14L13.5482 19.3125L28.1942 34.1153Z" fill="url(#paint1_linear_3777_76113)"/>
<path d="M28.1936 34.1152L7.48672 41.4393L3.40918 45.428L21.5112 47.3707L33.6034 35.8646L28.1936 34.1152Z" fill="url(#paint2_linear_3777_76113)"/>
<path d="M14.688 22.1278L13.5473 19.3125L7.48633 41.4394L9.64853 39.3204L14.688 22.1278Z" fill="#EA4242"/>
<path d="M14.6885 22.1278L25.325 33.1912L28.1938 34.1153L13.5479 19.3125L14.6885 22.1278Z" fill="url(#paint3_linear_3777_76113)"/>
<path d="M9.64853 39.3196L7.48633 41.4386L28.1932 34.1145L25.3245 33.1904L9.64853 39.3196Z" fill="#F35048"/>
<path d="M18.2429 30.9028L14.6889 22.126L9.64941 39.3186L18.2429 30.9028Z" fill="url(#paint4_linear_3777_76113)"/>
<path d="M25.325 33.1894L14.6885 22.126L18.2425 30.9028L25.325 33.1894Z" fill="url(#paint5_linear_3777_76113)"/>
<path d="M9.64941 39.321L25.3254 33.1919L18.2429 30.9053L9.64941 39.321Z" fill="url(#paint6_linear_3777_76113)"/>
<defs>
<linearGradient id="paint0_linear_3777_76113" x1="-31.2882" y1="55.9556" x2="18.4836" y2="22.8538" gradientUnits="userSpaceOnUse">
<stop stop-color="#828282"/>
<stop offset="0.5168" stop-color="#363636"/>
<stop offset="1"/>
</linearGradient>
<linearGradient id="paint1_linear_3777_76113" x1="-11.0192" y1="46.8917" x2="44.0093" y2="11.5375" gradientUnits="userSpaceOnUse">
<stop offset="0.3656" stop-color="#828282"/>
<stop offset="0.5719" stop-color="#363636"/>
<stop offset="1"/>
</linearGradient>
<linearGradient id="paint2_linear_3777_76113" x1="-2.61259" y1="56.5311" x2="30.4579" y2="33.5497" gradientUnits="userSpaceOnUse">
<stop stop-color="#828282"/>
<stop offset="0.5168" stop-color="#363636"/>
<stop offset="1"/>
</linearGradient>
<linearGradient id="paint3_linear_3777_76113" x1="5.91958" y1="15.1234" x2="53.6647" y2="53.6693" gradientUnits="userSpaceOnUse">
<stop stop-color="#FF5858"/>
<stop offset="0.237" stop-color="#FD614F"/>
<stop offset="0.6294" stop-color="#F77B36"/>
<stop offset="0.9944" stop-color="#F09819"/>
</linearGradient>
<linearGradient id="paint4_linear_3777_76113" x1="-29.3445" y1="58.8757" x2="20.4272" y2="25.7739" gradientUnits="userSpaceOnUse">
<stop stop-color="#828282"/>
<stop offset="0.5168" stop-color="#363636"/>
<stop offset="1"/>
</linearGradient>
<linearGradient id="paint5_linear_3777_76113" x1="-10.525" y1="47.6599" x2="44.5035" y2="12.3057" gradientUnits="userSpaceOnUse">
<stop offset="0.3656" stop-color="#828282"/>
<stop offset="0.5719" stop-color="#363636"/>
<stop offset="1"/>
</linearGradient>
<linearGradient id="paint6_linear_3777_76113" x1="-5.96215" y1="51.7111" x2="27.1083" y2="28.7297" gradientUnits="userSpaceOnUse">
<stop stop-color="#828282"/>
<stop offset="0.5168" stop-color="#363636"/>
<stop offset="1"/>
</linearGradient>
</defs>
</svg>
