<svg width="20" height="15" viewBox="0 0 20 15" fill="none" xmlns="http://www.w3.org/2000/svg">
<path d="M19.986 4.74C19.984 4.712 19.981 4.682 19.978 4.652C19.802 2.044 17.615 0 15 0H5C2.321 0 0.142 2.076 0.013 4.737C0.00300001 4.816 0 4.898 0 4.99V11.5C0 12.425 0.373 13.328 1.022 13.976C1.672 14.627 2.575 15 3.5 15C5.3 15 6.004 14 7 12C7.146 11.708 7.992 10 10 10C11.996 10 12.853 11.707 13 12C14.004 14 14.7 15 16.5 15C17.425 15 18.328 14.627 18.976 13.978C19.627 13.328 20 12.425 20 11.5V5C20 4.905 19.996 4.82 19.986 4.74ZM5 7.031C3.895 7.031 3 6.136 3 5.031C3 3.926 3.895 3.031 5 3.031C6.105 3.031 7 3.926 7 5.031C7 6.136 6.105 7.031 5 7.031ZM15 2.031C15.553 2.031 16 2.478 16 3.031C16 3.584 15.553 4.031 15 4.031C14.447 4.031 14 3.584 14 3.031C14 2.478 14.447 2.031 15 2.031ZM13 6.031C12.447 6.031 12 5.584 12 5.031C12 4.478 12.447 4.031 13 4.031C13.553 4.031 14 4.478 14 5.031C14 5.584 13.553 6.031 13 6.031ZM15 8.031C14.447 8.031 14 7.584 14 7.031C14 6.478 14.447 6.031 15 6.031C15.553 6.031 16 6.478 16 7.031C16 7.584 15.553 8.031 15 8.031ZM17 6.031C16.447 6.031 16 5.584 16 5.031C16 4.478 16.447 4.031 17 4.031C17.553 4.031 18 4.478 18 5.031C18 5.584 17.553 6.031 17 6.031Z" fill="#FDF8E3"/>
</svg>
