<svg width="20" height="20" viewBox="0 0 20 20" fill="none" xmlns="http://www.w3.org/2000/svg">
<path d="M3 10H2V18C2 19.104 2.896 20 4 20H9V10H4H3ZM16 10H11V20H16C17.104 20 18 19.104 18 18V10H17H16ZM16.791 5C16.922 4.589 17 4.096 17 3.5C17 1.57 15.43 0 13.5 0C11.878 0 10.795 1.482 10.096 3.085C9.407 1.57 8.269 0 6.5 0C4.57 0 3 1.57 3 3.5C3 4.096 3.079 4.589 3.209 5H0V9H9V7H10H11V7.091V9H20V5H16.791ZM5 3.5C5 2.673 5.673 2 6.5 2C7.388 2 8.214 3.525 8.698 5H6C5.626 5 5 5 5 3.5ZM13.5 2C14.327 2 15 2.673 15 3.5C15 5 14.374 5 14 5H11.523C12.033 3.424 12.774 2 13.5 2Z" fill="#FFFFFFAA"/>
</svg>
