<svg width="21" height="20" viewBox="0 0 21 20" fill="none" xmlns="http://www.w3.org/2000/svg">
<path d="M14.784 13.8434C14.784 13.8434 17.639 10.9884 18.615 10.0144C21.678 6.95143 20.146 0.82343 20.146 0.82343C20.146 0.82343 14.018 -0.70857 10.955 2.35543C8.66505 4.64543 7.13905 6.22243 7.13905 6.22243C7.13905 6.22243 3.29605 5.41843 0.998047 7.71643L13.253 19.9714C15.551 17.6734 14.784 13.8434 14.784 13.8434ZM13.282 4.85843C14.064 4.07643 15.329 4.07643 16.11 4.85843C16.892 5.63943 16.892 6.90443 16.11 7.68643C15.329 8.46743 14.064 8.46743 13.282 7.68643C12.501 6.90443 12.501 5.64043 13.282 4.85843ZM1.96905 18.9694C1.96905 18.9694 4.96905 18.9694 6.96905 16.9694L3.96905 13.9694C1.96905 14.9694 1.96905 18.9694 1.96905 18.9694Z" fill="#FFFFFFAA"/>
</svg>
