<svg width="75" height="15" viewBox="0 0 75 15" fill="none" xmlns="http://www.w3.org/2000/svg">
<path d="M74.2448 4.21936L70.8137 7.68032L74.2448 11.1413V14.5187H72.6831L68.3527 10.1507L65.8918 7.69226L68.3527 5.2099L69.323 4.23128H65.8918V7.69226V14.5307H62.4844V4.21936V0.889648H65.8918H74.2448V4.21936ZM47.7544 0.889648V4.30289H61.1001V0.889648H47.7544ZM47.7544 9.41082H61.1001V6.0095H47.7544V9.41082ZM47.7544 14.5307H61.1001V11.1175H47.7544V14.5307ZM13.4316 0.889648V14.5307H17.3477V0.889648H13.4316ZM43.0218 0.889648V6.0095H36.42V0.889648H33.0599V6.0095V9.3989V14.5187H36.42V9.3989H43.0218V14.5187H46.3819V9.3989V6.0095V0.889648H43.0218ZM31.6874 0.889648V4.31483V8.99313V9.51822H21.9384V14.5187H18.7321V9.53016V6.54656V4.31483V0.889648H22.6481H28.3273H31.6874ZM28.3273 4.31483H21.9384L24.1507 6.54656H28.3273V4.31483ZM12.0591 0.889648H0.405273V4.30289L7.37397 11.1175H0.405273V14.5307H12.0591V11.1175L5.09049 4.30289H12.0591V0.889648Z" fill="white"/>
</svg>
