<svg width="32" height="32" viewBox="0 0 32 32" fill="none" xmlns="http://www.w3.org/2000/svg">
<path d="M7.51819 25.8323L13.0223 5.73847L11.0665 0.914062L0.719238 13.1819L3.81529 29.4546L7.51819 25.8323Z" fill="url(#paint0_linear_2443_3812)"/>
<path d="M26.3225 19.1812L31.2352 20.7698L25.217 6.21076L11.0664 0.914062L13.0222 5.73847L26.3225 19.1812Z" fill="url(#paint1_linear_2443_3812)"/>
<path d="M26.3222 19.1816L7.51784 25.8328L3.81494 29.455L20.2538 31.2192L31.2349 20.7703L26.3222 19.1816Z" fill="url(#paint2_linear_2443_3812)"/>
<path d="M14.0581 8.2949L13.0222 5.73828L7.51807 25.8322L9.48161 23.9079L14.0581 8.2949Z" fill="#EA4242"/>
<path d="M14.0579 8.2949L23.7171 18.3418L26.3223 19.181L13.022 5.73828L14.0579 8.2949Z" fill="url(#paint3_linear_2443_3812)"/>
<path d="M9.48161 23.9078L7.51807 25.8321L26.3224 19.181L23.7173 18.3418L9.48161 23.9078Z" fill="#F35048"/>
<path d="M17.2854 16.2653L14.0579 8.29492L9.48145 23.9079L17.2854 16.2653Z" fill="url(#paint4_linear_2443_3812)"/>
<path d="M23.7173 18.3419L14.0581 8.29492L17.2856 16.2653L23.7173 18.3419Z" fill="url(#paint5_linear_2443_3812)"/>
<path d="M9.48145 23.9082L23.7171 18.3421L17.2854 16.2656L9.48145 23.9082Z" fill="url(#paint6_linear_2443_3812)"/>
<defs>
<linearGradient id="paint0_linear_2443_3812" x1="-27.6942" y1="39.0148" x2="17.5046" y2="8.95439" gradientUnits="userSpaceOnUse">
<stop stop-color="#828282"/>
<stop offset="0.5168" stop-color="#363636"/>
<stop offset="1"/>
</linearGradient>
<linearGradient id="paint1_linear_2443_3812" x1="-9.28802" y1="30.7837" x2="40.6845" y2="-1.32217" gradientUnits="userSpaceOnUse">
<stop offset="0.3656" stop-color="#828282"/>
<stop offset="0.5719" stop-color="#363636"/>
<stop offset="1"/>
</linearGradient>
<linearGradient id="paint2_linear_2443_3812" x1="-1.65356" y1="39.538" x2="28.3784" y2="18.6681" gradientUnits="userSpaceOnUse">
<stop stop-color="#828282"/>
<stop offset="0.5168" stop-color="#363636"/>
<stop offset="1"/>
</linearGradient>
<linearGradient id="paint3_linear_2443_3812" x1="6.09458" y1="1.93403" x2="49.4529" y2="36.9384" gradientUnits="userSpaceOnUse">
<stop stop-color="#FF5858"/>
<stop offset="0.237" stop-color="#FD614F"/>
<stop offset="0.6294" stop-color="#F77B36"/>
<stop offset="0.9944" stop-color="#F09819"/>
</linearGradient>
<linearGradient id="paint4_linear_2443_3812" x1="-25.9298" y1="41.6681" x2="19.269" y2="11.6076" gradientUnits="userSpaceOnUse">
<stop stop-color="#828282"/>
<stop offset="0.5168" stop-color="#363636"/>
<stop offset="1"/>
</linearGradient>
<linearGradient id="paint5_linear_2443_3812" x1="-8.83879" y1="31.4828" x2="41.1338" y2="-0.623097" gradientUnits="userSpaceOnUse">
<stop offset="0.3656" stop-color="#828282"/>
<stop offset="0.5719" stop-color="#363636"/>
<stop offset="1"/>
</linearGradient>
<linearGradient id="paint6_linear_2443_3812" x1="-4.69575" y1="35.1599" x2="25.3363" y2="14.29" gradientUnits="userSpaceOnUse">
<stop stop-color="#828282"/>
<stop offset="0.5168" stop-color="#363636"/>
<stop offset="1"/>
</linearGradient>
</defs>
</svg>
