<svg width="275" height="49" viewBox="0 0 275 49" fill="none" xmlns="http://www.w3.org/2000/svg">
<path d="M188 12.8503C188 12.4814 188.295 12.1433 188.703 12.1433H193.114C193.48 12.1433 193.817 12.4814 193.817 12.8503V32.7471H202.638C203.046 32.7471 203.341 33.0852 203.341 33.4541V37.5216C203.341 37.8904 203.046 38.2285 202.638 38.2285H188.703C188.295 38.2285 188 37.8904 188 37.5216V12.8503Z" fill="white"/>
<path d="M235.164 12.8503C235.164 12.4814 235.46 12.1433 235.867 12.1433H244.506C248.876 12.1433 252.472 15.1657 252.472 19.0796C252.472 21.9483 249.915 24.0384 248.173 24.9708C250.139 25.7904 253.134 27.6141 253.134 31.0464C253.134 35.2163 249.466 38.2388 245.056 38.2388H235.867C235.46 38.2388 235.164 37.9007 235.164 37.5318V12.8503ZM243.833 22.727C245.239 22.727 246.431 21.5385 246.431 20.0426C246.431 18.5468 245.249 17.512 243.833 17.512H240.94V22.727H243.833ZM244.322 32.9008C245.769 32.9008 246.991 31.7123 246.991 30.1755C246.991 28.6899 245.402 27.5629 243.955 27.5629H240.95V32.8906H244.322V32.9008Z" fill="white"/>
<path d="M257.106 34.6937L258.848 31.5995C259.144 31.118 259.847 31.1897 260.111 31.3741C260.264 31.4459 262.923 33.4233 265.378 33.4233C266.865 33.4233 267.935 32.4909 267.935 31.1897C267.935 29.6222 266.641 28.4337 264.115 27.4296C260.926 26.1592 256.923 23.6695 256.923 19.1922C256.923 15.5038 259.775 11.7744 265.48 11.7744C269.33 11.7744 272.295 13.7518 273.405 14.5714C273.853 14.8276 273.772 15.5038 273.629 15.7599L271.734 18.6287C271.48 19.0385 270.807 19.3766 270.471 19.1102C270.135 18.9258 267.436 16.8767 265.174 16.8767C263.84 16.8767 262.841 17.768 262.841 18.7721C262.841 20.1552 263.952 21.1901 266.886 22.3888C269.779 23.5465 274.373 25.821 274.373 30.8824C274.373 34.7244 271.072 38.5973 265.633 38.5973C260.814 38.5973 258.145 36.5891 257.3 35.7285C256.913 35.3597 256.811 35.2162 257.106 34.6937Z" fill="white"/>
<path d="M218.234 23.1369H218.193L213.192 34.3558L211.857 37.3373C211.674 37.7881 211.266 38.2286 210.523 38.2286H206.448C205.888 38.2286 205.592 37.7471 205.816 37.2553L217.419 12.1742C217.531 11.9488 217.786 11.7643 218.051 11.7643H218.417C218.672 11.7643 218.937 11.9488 219.049 12.1742L230.641 37.2656C230.866 37.7471 230.57 38.2389 230.01 38.2389H225.894C225.232 38.2389 224.927 38.0135 224.601 37.3065L218.234 23.1369Z" fill="white"/>
<path d="M76.289 23.17H76.2483L71.2466 34.389L69.9121 37.3704C69.7288 37.8212 69.3213 38.2618 68.5777 38.2618H64.503C63.9427 38.2618 63.6473 37.7802 63.8714 37.2885L75.4741 12.2073C75.5861 11.9819 75.8408 11.7975 76.1057 11.7975H76.4724C76.7271 11.7975 76.9919 11.9819 77.104 12.2073L88.7066 37.2885C88.9307 37.77 88.6353 38.2618 88.0751 38.2618H83.9596C83.2975 38.2618 82.9919 38.0364 82.6659 37.3294L76.289 23.17Z" fill="white"/>
<path d="M93.749 17.6574H88.4519C88.0444 17.6574 87.749 17.3193 87.749 16.9505V12.8932C87.749 12.5244 88.0444 12.1863 88.4519 12.1863H104.903C105.311 12.1863 105.606 12.5244 105.606 12.8932V16.9505C105.606 17.3193 105.311 17.6574 104.903 17.6574H99.6064V37.5543C99.6064 37.9231 99.2702 38.2613 98.9035 38.2613H94.4519C94.0852 38.2613 93.749 37.9231 93.749 37.5543V17.6574Z" fill="white"/>
<path d="M109.315 12.8829C109.315 12.514 109.651 12.1759 110.018 12.1759H114.428C114.836 12.1759 115.131 12.514 115.131 12.8829V22.278H125.726V12.8829C125.726 12.514 126.021 12.1759 126.428 12.1759H130.839C131.206 12.1759 131.542 12.514 131.542 12.8829V37.5542C131.542 37.923 131.206 38.2611 130.839 38.2611H126.428C126.021 38.2611 125.726 37.923 125.726 37.5542V27.7492H115.131V37.5542C115.131 37.923 114.836 38.2611 114.428 38.2611H110.018C109.651 38.2611 109.315 37.923 109.315 37.5542V12.8829Z" fill="white"/>
<path d="M137.919 12.8829C137.919 12.514 138.214 12.1759 138.622 12.1759H153.963C154.37 12.1759 154.666 12.514 154.666 12.8829V16.9401C154.666 17.3089 154.37 17.647 153.963 17.647H143.695V22.2678H152.139C152.506 22.2678 152.842 22.6059 152.842 22.9747V27.032C152.842 27.4418 152.506 27.7389 152.139 27.7389H143.695V32.7695H153.963C154.37 32.7695 154.666 33.1076 154.666 33.4764V37.5439C154.666 37.9128 154.37 38.2509 153.963 38.2509H138.622C138.214 38.2509 137.919 37.9128 137.919 37.5439V12.8829Z" fill="white"/>
<path d="M159.627 12.8829C159.627 12.514 159.922 12.1759 160.33 12.1759H171.413C175.864 12.1759 179.491 15.7926 179.491 20.2289C179.491 23.6612 177.229 26.4173 174.01 27.7184L179.083 37.1853C179.338 37.6669 179.083 38.2611 178.452 38.2611H173.521C173.226 38.2611 173.002 38.0767 172.931 37.923L168 28.0463H165.443V37.5542C165.443 37.923 165.107 38.2611 164.74 38.2611H160.33C159.922 38.2611 159.627 37.923 159.627 37.5542V12.8829ZM170.934 23.3231C172.452 23.3231 173.746 21.9092 173.746 20.3416C173.746 18.7741 172.452 17.5139 170.934 17.5139H165.454V23.3231H170.934Z" fill="white"/>
<path d="M10.7694 40.1509L19.4878 8.45042L16.3898 0.839359L0 20.1934L4.90409 45.8653L10.7694 40.1509Z" fill="url(#paint0_linear_2205_66805)"/>
<path d="M40.5551 29.658L48.3367 32.1642L38.8041 9.19557L16.3898 0.839405L19.4877 8.45047L40.5551 29.658Z" fill="url(#paint1_linear_2205_66805)"/>
<path d="M40.5552 29.658L10.7695 40.1509L4.90417 45.8654L30.943 48.6487L48.3369 32.1643L40.5552 29.658Z" fill="url(#paint2_linear_2205_66805)"/>
<path d="M21.1285 12.4838L19.4877 8.4504L10.7693 40.1509L13.8795 37.1151L21.1285 12.4838Z" fill="#EA4242"/>
<path d="M21.1285 12.4838L36.4285 28.334L40.5551 29.6579L19.4877 8.4504L21.1285 12.4838Z" fill="url(#paint3_linear_2205_66805)"/>
<path d="M13.8795 37.115L10.7693 40.1508L40.555 29.6579L36.4285 28.3339L13.8795 37.115Z" fill="#F35048"/>
<path d="M26.2409 25.0582L21.1286 12.4839L13.8796 37.1152L26.2409 25.0582Z" fill="url(#paint4_linear_2205_66805)"/>
<path d="M36.4286 28.3341L21.1285 12.4839L26.2408 25.0582L36.4286 28.3341Z" fill="url(#paint5_linear_2205_66805)"/>
<path d="M13.8796 37.115L36.4286 28.334L26.2409 25.058L13.8796 37.115Z" fill="url(#paint6_linear_2205_66805)"/>
<defs>
<linearGradient id="paint0_linear_2205_66805" x1="-45.0064" y1="60.9478" x2="26.4106" y2="13.2589" gradientUnits="userSpaceOnUse">
<stop stop-color="#828282"/>
<stop offset="0.5168" stop-color="#363636"/>
<stop offset="1"/>
</linearGradient>
<linearGradient id="paint1_linear_2205_66805" x1="-15.8512" y1="47.9623" x2="63.1178" y2="-2.97748" gradientUnits="userSpaceOnUse">
<stop offset="0.3656" stop-color="#828282"/>
<stop offset="0.5719" stop-color="#363636"/>
<stop offset="1"/>
</linearGradient>
<linearGradient id="paint2_linear_2205_66805" x1="-3.75781" y1="61.7726" x2="43.6874" y2="28.6689" gradientUnits="userSpaceOnUse">
<stop stop-color="#828282"/>
<stop offset="0.5168" stop-color="#363636"/>
<stop offset="1"/>
</linearGradient>
<linearGradient id="paint3_linear_2205_66805" x1="8.51482" y1="2.44874" x2="76.9752" y2="57.9416" gradientUnits="userSpaceOnUse">
<stop stop-color="#FF5858"/>
<stop offset="0.237" stop-color="#FD614F"/>
<stop offset="0.6294" stop-color="#F77B36"/>
<stop offset="0.9944" stop-color="#F09819"/>
</linearGradient>
<linearGradient id="paint4_linear_2205_66805" x1="-42.2111" y1="65.1341" x2="29.2059" y2="17.445" gradientUnits="userSpaceOnUse">
<stop stop-color="#828282"/>
<stop offset="0.5168" stop-color="#363636"/>
<stop offset="1"/>
</linearGradient>
<linearGradient id="paint5_linear_2205_66805" x1="-15.1397" y1="49.0655" x2="63.8294" y2="-1.87451" gradientUnits="userSpaceOnUse">
<stop offset="0.3656" stop-color="#828282"/>
<stop offset="0.5719" stop-color="#363636"/>
<stop offset="1"/>
</linearGradient>
<linearGradient id="paint6_linear_2205_66805" x1="-8.57674" y1="54.8659" x2="38.8685" y2="21.7622" gradientUnits="userSpaceOnUse">
<stop stop-color="#828282"/>
<stop offset="0.5168" stop-color="#363636"/>
<stop offset="1"/>
</linearGradient>
</defs>
</svg>
